<?xml version="1.0" encoding="ISO-8859-1"?>
<!-- Generator: Adobe Illustrator 10.0.3, SVG Export Plug-In . SVG Version: 3.0.0 Build 77)  -->
<!DOCTYPE svg PUBLIC "-//W3C//DTD SVG 1.0//EN" "http://www.w3.org/TR/2001/REC-SVG-20010904/DTD/svg10.dtd" [
	<!ENTITY ns_flows "http://ns.adobe.com/Flows/1.0/">
	<!ENTITY ns_svg "http://www.w3.org/2000/svg">
	<!ENTITY ns_xlink "http://www.w3.org/1999/xlink">
]>
<svg xmlns="http://www.w3.org/2000/svg" xmlns:xlink="http://www.w3.org/1999/xlink" xmlns:a="http://ns.adobe.com/AdobeSVGViewerExtensions/3.0/" width="128" height="128" viewBox="0 0 128 128" overflow="visible" enable-background="new 0 0 128 128" xml:space="preserve">
	<g id="Layer_1">
		<g>
			<g>
				<path fill="#333333" d="M118.442,15.26c-1.162,1.161-3.046,1.161-4.207,0s-1.161-3.045,0-4.206c1.161-1.162,3.045-1.162,4.207,0      C119.604,12.215,119.604,14.099,118.442,15.26z"/>
				<path fill="#333333" d="M86.631,44.443l-1.577-1.577l29.708-29.709l1.577,1.577L86.631,44.443z"/>
			</g>
			<g>
				<path fill="#333333" d="M89.872,3.186c0,1.643-1.333,2.976-2.975,2.976s-2.974-1.333-2.974-2.976      c0-1.642,1.332-2.973,2.974-2.973C88.54,0.213,89.872,1.544,89.872,3.186z"/>
				<path fill="#333333" d="M88.014,46.316h-2.231V4.302h2.231V46.316z"/>
			</g>
			<path fill="#333333" d="M112.619,125.717c0,1.144-0.919,2.07-2.052,2.07H10.736c-1.133,0-2.05-0.927-2.05-2.07l0.478-84.611     c0-1.145,0.918-2.068,2.05-2.068h99.832c1.132,0,2.051,0.924,2.051,2.068L112.619,125.717z"/>
			<linearGradient id="XMLID_1_" gradientUnits="userSpaceOnUse" x1="60.8911" y1="29.6812" x2="60.8911" y2="99.7845">
				<stop offset="0" style="stop-color:#FFFFFF"/>
				<stop offset="0.3678" style="stop-color:#9D9D9D"/>
				<stop offset="0.8052" style="stop-color:#2D2D2D"/>
				<stop offset="1" style="stop-color:#000000"/>
				<a:midPointStop offset="0" style="stop-color:#FFFFFF"/>
				<a:midPointStop offset="0.479" style="stop-color:#FFFFFF"/>
				<a:midPointStop offset="1" style="stop-color:#000000"/>
			</linearGradient>
			<path opacity="0.81" fill="url(#XMLID_1_)" a:adobe-blending-mode="screen" d="M110.616,124.004     c0,1.086-0.882,1.968-1.968,1.968H12.656c-1.087,0-1.968-0.882-1.968-1.968l0.478-81.006c0-1.088,0.882-1.969,1.969-1.969h95.991     c1.086,0,1.969,0.881,1.969,1.969L110.616,124.004z"/>
			<g>
				<linearGradient id="XMLID_2_" gradientUnits="userSpaceOnUse" x1="61.5024" y1="18.5396" x2="61.5024" y2="110.5096">
					<stop offset="0" style="stop-color:#000000"/>
					<stop offset="1" style="stop-color:#B5B5B5"/>
					<a:midPointStop offset="0" style="stop-color:#000000"/>
					<a:midPointStop offset="0.5" style="stop-color:#000000"/>
					<a:midPointStop offset="1" style="stop-color:#B5B5B5"/>
				</linearGradient>
				<path fill="url(#XMLID_2_)" d="M102.646,107.807c0,0.934-0.753,1.687-1.685,1.687h-78.92c-0.931,0-1.684-0.753-1.684-1.687      V48.068c0-0.931,0.753-1.685,1.684-1.685h78.92c0.932,0,1.685,0.754,1.685,1.685V107.807z"/>
				
					<radialGradient id="XMLID_3_" cx="58.7769" cy="122.3877" r="52.3604" fx="58.7769" fy="122.3877" gradientUnits="userSpaceOnUse">
					<stop offset="0" style="stop-color:#B8BBDA"/>
					<stop offset="1" style="stop-color:#0D2D7D"/>
					<a:midPointStop offset="0" style="stop-color:#B8BBDA"/>
					<a:midPointStop offset="0.5" style="stop-color:#B8BBDA"/>
					<a:midPointStop offset="1" style="stop-color:#0D2D7D"/>
				</radialGradient>
				<path fill="url(#XMLID_3_)" d="M100.328,106.127c0,0.876-0.711,1.587-1.589,1.587H24.266c-0.878,0-1.589-0.711-1.589-1.587      V49.75c0-0.877,0.711-1.589,1.589-1.589h74.474c0.878,0,1.589,0.712,1.589,1.589V106.127z"/>
			</g>
			
				<radialGradient id="XMLID_4_" cx="36.2217" cy="60.2163" r="57.7388" fx="36.2217" fy="60.2163" gradientTransform="matrix(1.0211, 0, 0, 0.9264, 27.8623, -8.8409)" gradientUnits="userSpaceOnUse">
				<stop offset="0" style="stop-color:#B8BBDA"/>
				<stop offset="1" style="stop-color:#0D2D7D"/>
				<a:midPointStop offset="0" style="stop-color:#B8BBDA"/>
				<a:midPointStop offset="0.5" style="stop-color:#B8BBDA"/>
				<a:midPointStop offset="1" style="stop-color:#0D2D7D"/>
			</radialGradient>
			<path opacity="0.78" fill="url(#XMLID_4_)" d="M23.57,59.344c0,11.951,17.039,21.64,38.059,21.64     c21.018,0,38.057-9.688,38.057-21.64c0-3.993-1.909-7.729-5.227-10.94H28.798C25.479,51.614,23.57,55.351,23.57,59.344z"/>
			<g>
				<linearGradient id="XMLID_5_" gradientUnits="userSpaceOnUse" x1="98.6885" y1="125.7139" x2="98.6885" y2="118.7914">
					<stop offset="0" style="stop-color:#FFFFFF"/>
					<stop offset="0.8483" style="stop-color:#00CD00"/>
					<stop offset="1" style="stop-color:#00BD00"/>
					<a:midPointStop offset="0" style="stop-color:#FFFFFF"/>
					<a:midPointStop offset="0.5" style="stop-color:#FFFFFF"/>
					<a:midPointStop offset="0.8483" style="stop-color:#00CD00"/>
					<a:midPointStop offset="0.5" style="stop-color:#00CD00"/>
					<a:midPointStop offset="1" style="stop-color:#00BD00"/>
				</linearGradient>
				<path fill="url(#XMLID_5_)" d="M102.397,118.534c0,2.048-1.659,3.708-3.708,3.708s-3.71-1.66-3.71-3.708      c0-2.049,1.661-3.71,3.71-3.71S102.397,116.485,102.397,118.534z"/>
				<linearGradient id="XMLID_6_" gradientUnits="userSpaceOnUse" x1="94.1318" y1="111.6963" x2="96.9031" y2="115.8532">
					<stop offset="0.0112" style="stop-color:#009500"/>
					<stop offset="0.2978" style="stop-color:#009000"/>
					<stop offset="1" style="stop-color:#005B00"/>
					<a:midPointStop offset="0.0112" style="stop-color:#009500"/>
					<a:midPointStop offset="0.5" style="stop-color:#009500"/>
					<a:midPointStop offset="0.2978" style="stop-color:#009000"/>
					<a:midPointStop offset="0.5" style="stop-color:#009000"/>
					<a:midPointStop offset="1" style="stop-color:#005B00"/>
				</linearGradient>
				<path fill="url(#XMLID_6_)" d="M94.804,118.534c0,2.142,1.742,3.884,3.886,3.884c2.143,0,3.886-1.742,3.886-3.884      c0-2.144-1.743-3.888-3.886-3.888C96.546,114.646,94.804,116.391,94.804,118.534z M95.157,118.534      c0-1.949,1.585-3.533,3.532-3.533s3.532,1.584,3.532,3.533c0,1.946-1.585,3.532-3.532,3.532S95.157,120.48,95.157,118.534z"/>
				<linearGradient id="XMLID_7_" gradientUnits="userSpaceOnUse" x1="98.5879" y1="115.1816" x2="98.5879" y2="119.1344">
					<stop offset="0" style="stop-color:#FFFFFF"/>
					<stop offset="0.1147" style="stop-color:#E9FAE9"/>
					<stop offset="0.3539" style="stop-color:#B0EDB0"/>
					<stop offset="0.6936" style="stop-color:#57D957"/>
					<stop offset="1" style="stop-color:#00C500"/>
					<a:midPointStop offset="0" style="stop-color:#FFFFFF"/>
					<a:midPointStop offset="0.5424" style="stop-color:#FFFFFF"/>
					<a:midPointStop offset="1" style="stop-color:#00C500"/>
				</linearGradient>
				<path fill="url(#XMLID_7_)" d="M98.706,118.675c1.291-0.954,2.505-1.275,3.038-1.378c-0.513-1.155-1.671-1.961-3.016-1.961      c-1.82,0-3.297,1.475-3.297,3.295c0,0.287,0.036,0.563,0.104,0.828C96.07,119.559,97.377,119.657,98.706,118.675z"/>
			</g>
			<path opacity="0.81" fill="#666666" d="M77.539,120.482h-36.61v6.461h36.61V120.482z"/>
			<path d="M77.539,120.109H40.556v7.205h37.356v-7.205H77.539z M77.169,120.854c0,0.619,0,5.097,0,5.719     c-0.722,0-35.148,0-35.869,0c0-0.622,0-5.1,0-5.719C42.021,120.854,76.447,120.854,77.169,120.854z"/>
		</g>
		<path fill="none" d="M128,128H0V0h128V128z"/>
	</g>
</svg>